<?xml version="1.0" encoding="UTF-8" standalone="no"?>
<!DOCTYPE svg PUBLIC "-//W3C//DTD SVG 1.1//EN"
 "http://www.w3.org/Graphics/SVG/1.1/DTD/svg11.dtd">
<!-- Generated by graphviz version 5.0.0 (20220707.1540)
 -->
<!-- Title: dependencies Pages: 1 -->
<svg width="1139pt" height="247pt"
 viewBox="0.00 0.00 1139.00 246.80" xmlns="http://www.w3.org/2000/svg" xmlns:xlink="http://www.w3.org/1999/xlink">
<g id="graph0" class="graph" transform="scale(1 1) rotate(0) translate(4 242.8)">
<title>dependencies</title>
<polygon fill="white" stroke="transparent" points="-4,4 -4,-242.8 1135,-242.8 1135,4 -4,4"/>
<text text-anchor="middle" x="565.5" y="-8.2" font-family="sans-serif" font-size="14.00">dependencies</text>
<g id="clust1" class="cluster">
<title>cluster_AppModule</title>
<polygon fill="none" stroke="black" stroke-dasharray="1,5" points="8,-32.8 8,-230.8 1123,-230.8 1123,-32.8 8,-32.8"/>
</g>
<g id="clust10" class="cluster">
<title>cluster_AppModule_imports</title>
<polygon fill="none" stroke="black" points="971,-40.8 971,-92.8 1115,-92.8 1115,-40.8 971,-40.8"/>
</g>
<g id="clust2" class="cluster">
<title>cluster_AppModule_declarations</title>
<polygon fill="none" stroke="black" points="16,-40.8 16,-92.8 963,-92.8 963,-40.8 16,-40.8"/>
</g>
<g id="clust12" class="cluster">
<title>cluster_AppModule_bootstrap</title>
<polygon fill="none" stroke="black" points="503,-170.8 503,-222.8 627,-222.8 627,-170.8 503,-170.8"/>
</g>
<!-- AboutComponent -->
<g id="node1" class="node">
<title>AboutComponent</title>
<polygon fill="#ffffb3" stroke="black" points="955.33,-84.8 838.67,-84.8 838.67,-48.8 955.33,-48.8 955.33,-84.8"/>
<text text-anchor="middle" x="897" y="-62.6" font-family="Times,serif" font-size="14.00">AboutComponent</text>
</g>
<!-- AppModule -->
<g id="node8" class="node">
<title>AppModule</title>
<polygon fill="#8dd3c7" stroke="black" points="606.66,-149.8 603.66,-153.8 582.66,-153.8 579.66,-149.8 523.34,-149.8 523.34,-113.8 606.66,-113.8 606.66,-149.8"/>
<text text-anchor="middle" x="565" y="-127.6" font-family="Times,serif" font-size="14.00">AppModule</text>
</g>
<!-- AboutComponent&#45;&gt;AppModule -->
<g id="edge1" class="edge">
<title>AboutComponent&#45;&gt;AppModule</title>
<path fill="none" stroke="black" d="M897,-84.91C897,-104.14 897,-131.8 897,-131.8 897,-131.8 616.71,-131.8 616.71,-131.8"/>
<polygon fill="black" stroke="black" points="616.71,-128.3 606.71,-131.8 616.71,-135.3 616.71,-128.3"/>
</g>
<!-- AppComponent -->
<g id="node2" class="node">
<title>AppComponent</title>
<polygon fill="#ffffb3" stroke="black" points="820.94,-84.8 715.06,-84.8 715.06,-48.8 820.94,-48.8 820.94,-84.8"/>
<text text-anchor="middle" x="768" y="-62.6" font-family="Times,serif" font-size="14.00">AppComponent</text>
</g>
<!-- AppComponent&#45;&gt;AppModule -->
<g id="edge2" class="edge">
<title>AppComponent&#45;&gt;AppModule</title>
<path fill="none" stroke="black" d="M768,-84.83C768,-101.2 768,-122.8 768,-122.8 768,-122.8 617.06,-122.8 617.06,-122.8"/>
<polygon fill="black" stroke="black" points="617.06,-119.3 607.06,-122.8 617.06,-126.3 617.06,-119.3"/>
</g>
<!-- Editor2Component -->
<g id="node3" class="node">
<title>Editor2Component</title>
<polygon fill="#ffffb3" stroke="black" points="697.82,-84.8 574.18,-84.8 574.18,-48.8 697.82,-48.8 697.82,-84.8"/>
<text text-anchor="middle" x="636" y="-62.6" font-family="Times,serif" font-size="14.00">Editor2Component</text>
</g>
<!-- Editor2Component&#45;&gt;AppModule -->
<g id="edge3" class="edge">
<title>Editor2Component&#45;&gt;AppModule</title>
<path fill="none" stroke="black" d="M590.58,-84.91C590.58,-84.91 590.58,-103.79 590.58,-103.79"/>
<polygon fill="black" stroke="black" points="587.08,-103.79 590.58,-113.79 594.08,-103.79 587.08,-103.79"/>
</g>
<!-- Editor3Component -->
<g id="node4" class="node">
<title>Editor3Component</title>
<polygon fill="#ffffb3" stroke="black" points="556.82,-84.8 433.18,-84.8 433.18,-48.8 556.82,-48.8 556.82,-84.8"/>
<text text-anchor="middle" x="495" y="-62.6" font-family="Times,serif" font-size="14.00">Editor3Component</text>
</g>
<!-- Editor3Component&#45;&gt;AppModule -->
<g id="edge4" class="edge">
<title>Editor3Component&#45;&gt;AppModule</title>
<path fill="none" stroke="black" d="M539.92,-84.91C539.92,-84.91 539.92,-103.79 539.92,-103.79"/>
<polygon fill="black" stroke="black" points="536.42,-103.79 539.92,-113.79 543.42,-103.79 536.42,-103.79"/>
</g>
<!-- Editor4Component -->
<g id="node5" class="node">
<title>Editor4Component</title>
<polygon fill="#ffffb3" stroke="black" points="415.82,-84.8 292.18,-84.8 292.18,-48.8 415.82,-48.8 415.82,-84.8"/>
<text text-anchor="middle" x="354" y="-62.6" font-family="Times,serif" font-size="14.00">Editor4Component</text>
</g>
<!-- Editor4Component&#45;&gt;AppModule -->
<g id="edge5" class="edge">
<title>Editor4Component&#45;&gt;AppModule</title>
<path fill="none" stroke="black" d="M354,-84.83C354,-101.2 354,-122.8 354,-122.8 354,-122.8 513.31,-122.8 513.31,-122.8"/>
<polygon fill="black" stroke="black" points="513.31,-126.3 523.31,-122.8 513.31,-119.3 513.31,-126.3"/>
</g>
<!-- EditorComponent -->
<g id="node6" class="node">
<title>EditorComponent</title>
<polygon fill="#ffffb3" stroke="black" points="274.32,-84.8 157.68,-84.8 157.68,-48.8 274.32,-48.8 274.32,-84.8"/>
<text text-anchor="middle" x="216" y="-62.6" font-family="Times,serif" font-size="14.00">EditorComponent</text>
</g>
<!-- EditorComponent&#45;&gt;AppModule -->
<g id="edge6" class="edge">
<title>EditorComponent&#45;&gt;AppModule</title>
<path fill="none" stroke="black" d="M216,-84.91C216,-104.14 216,-131.8 216,-131.8 216,-131.8 513.25,-131.8 513.25,-131.8"/>
<polygon fill="black" stroke="black" points="513.25,-135.3 523.25,-131.8 513.25,-128.3 513.25,-135.3"/>
</g>
<!-- HomeComponent -->
<g id="node7" class="node">
<title>HomeComponent</title>
<polygon fill="#ffffb3" stroke="black" points="139.55,-84.8 24.45,-84.8 24.45,-48.8 139.55,-48.8 139.55,-84.8"/>
<text text-anchor="middle" x="82" y="-62.6" font-family="Times,serif" font-size="14.00">HomeComponent</text>
</g>
<!-- HomeComponent&#45;&gt;AppModule -->
<g id="edge7" class="edge">
<title>HomeComponent&#45;&gt;AppModule</title>
<path fill="none" stroke="black" d="M82,-85.09C82,-107.01 82,-140.8 82,-140.8 82,-140.8 512.98,-140.8 512.98,-140.8"/>
<polygon fill="black" stroke="black" points="512.98,-144.3 522.98,-140.8 512.98,-137.3 512.98,-144.3"/>
</g>
<!-- AppComponent  -->
<g id="node10" class="node">
<title>AppComponent </title>
<polygon fill="#80b1d3" stroke="black" points="619.44,-214.8 510.56,-214.8 510.56,-178.8 619.44,-178.8 619.44,-214.8"/>
<text text-anchor="middle" x="565" y="-192.6" font-family="Times,serif" font-size="14.00">AppComponent </text>
</g>
<!-- AppModule&#45;&gt;AppComponent  -->
<g id="edge9" class="edge">
<title>AppModule&#45;&gt;AppComponent </title>
<path fill="none" stroke="black" stroke-dasharray="1,5" d="M565,-149.91C565,-149.91 565,-168.79 565,-168.79"/>
<polygon fill="black" stroke="black" points="561.5,-168.79 565,-178.79 568.5,-168.79 561.5,-168.79"/>
</g>
<!-- AppRoutingModule -->
<g id="node9" class="node">
<title>AppRoutingModule</title>
<polygon fill="#8dd3c7" stroke="black" points="1107.28,-84.8 1104.28,-88.8 1083.28,-88.8 1080.28,-84.8 978.72,-84.8 978.72,-48.8 1107.28,-48.8 1107.28,-84.8"/>
<text text-anchor="middle" x="1043" y="-62.6" font-family="Times,serif" font-size="14.00">AppRoutingModule</text>
</g>
<!-- AppRoutingModule&#45;&gt;AppModule -->
<g id="edge8" class="edge">
<title>AppRoutingModule&#45;&gt;AppModule</title>
<path fill="none" stroke="black" d="M1043,-85.09C1043,-107.01 1043,-140.8 1043,-140.8 1043,-140.8 617,-140.8 617,-140.8"/>
<polygon fill="black" stroke="black" points="617,-137.3 607,-140.8 617,-144.3 617,-137.3"/>
</g>
</g>
</svg>
