<?xml version="1.0" encoding="UTF-8" standalone="no"?>
<!DOCTYPE svg PUBLIC "-//W3C//DTD SVG 1.1//EN"
 "http://www.w3.org/Graphics/SVG/1.1/DTD/svg11.dtd">
<!-- Generated by graphviz version 5.0.0 (20220707.1540)
 -->
<!-- Title: dependencies Pages: 1 -->
<svg width="1139pt" height="247pt"
 viewBox="0.00 0.00 1139.00 246.80" xmlns="http://www.w3.org/2000/svg" xmlns:xlink="http://www.w3.org/1999/xlink">
<g id="graph0" class="graph" transform="scale(1 1) rotate(0) translate(4 242.8)">
<title>dependencies</title>
<polygon fill="white" stroke="transparent" points="-4,4 -4,-242.8 1135,-242.8 1135,4 -4,4"/>
<text text-anchor="middle" x="565.5" y="-8.2" font-family="sans-serif" font-size="14.00">dependencies</text>
<g id="clust1" class="cluster">
<title>cluster_AppModule</title>
<polygon fill="none" stroke="black" stroke-dasharray="1,5" points="8,-32.8 8,-230.8 1123,-230.8 1123,-32.8 8,-32.8"/>
</g>
<g id="clust2" class="cluster">
<title>cluster_AppModule_declarations</title>
<polygon fill="none" stroke="black" points="168,-40.8 168,-92.8 1115,-92.8 1115,-40.8 168,-40.8"/>
</g>
<g id="clust10" class="cluster">
<title>cluster_AppModule_imports</title>
<polygon fill="none" stroke="black" points="16,-40.8 16,-92.8 160,-92.8 160,-40.8 16,-40.8"/>
</g>
<g id="clust12" class="cluster">
<title>cluster_AppModule_bootstrap</title>
<polygon fill="none" stroke="black" points="514,-170.8 514,-222.8 638,-222.8 638,-170.8 514,-170.8"/>
</g>
<!-- AboutComponent -->
<g id="node1" class="node">
<title>AboutComponent</title>
<polygon fill="#ffffb3" stroke="black" points="1107.33,-84.8 990.67,-84.8 990.67,-48.8 1107.33,-48.8 1107.33,-84.8"/>
<text text-anchor="middle" x="1049" y="-62.6" font-family="Times,serif" font-size="14.00">AboutComponent</text>
</g>
<!-- AppModule -->
<g id="node8" class="node">
<title>AppModule</title>
<polygon fill="#8dd3c7" stroke="black" points="617.66,-149.8 614.66,-153.8 593.66,-153.8 590.66,-149.8 534.34,-149.8 534.34,-113.8 617.66,-113.8 617.66,-149.8"/>
<text text-anchor="middle" x="576" y="-127.6" font-family="Times,serif" font-size="14.00">AppModule</text>
</g>
<!-- AboutComponent&#45;&gt;AppModule -->
<g id="edge1" class="edge">
<title>AboutComponent&#45;&gt;AppModule</title>
<path fill="none" stroke="black" d="M1049,-85.09C1049,-107.01 1049,-140.8 1049,-140.8 1049,-140.8 627.98,-140.8 627.98,-140.8"/>
<polygon fill="black" stroke="black" points="627.98,-137.3 617.98,-140.8 627.98,-144.3 627.98,-137.3"/>
</g>
<!-- AppComponent -->
<g id="node2" class="node">
<title>AppComponent</title>
<polygon fill="#ffffb3" stroke="black" points="972.94,-84.8 867.06,-84.8 867.06,-48.8 972.94,-48.8 972.94,-84.8"/>
<text text-anchor="middle" x="920" y="-62.6" font-family="Times,serif" font-size="14.00">AppComponent</text>
</g>
<!-- AppComponent&#45;&gt;AppModule -->
<g id="edge2" class="edge">
<title>AppComponent&#45;&gt;AppModule</title>
<path fill="none" stroke="black" d="M920,-84.91C920,-104.14 920,-131.8 920,-131.8 920,-131.8 627.84,-131.8 627.84,-131.8"/>
<polygon fill="black" stroke="black" points="627.84,-128.3 617.84,-131.8 627.84,-135.3 627.84,-128.3"/>
</g>
<!-- Editor2Component -->
<g id="node3" class="node">
<title>Editor2Component</title>
<polygon fill="#ffffb3" stroke="black" points="849.82,-84.8 726.18,-84.8 726.18,-48.8 849.82,-48.8 849.82,-84.8"/>
<text text-anchor="middle" x="788" y="-62.6" font-family="Times,serif" font-size="14.00">Editor2Component</text>
</g>
<!-- Editor2Component&#45;&gt;AppModule -->
<g id="edge3" class="edge">
<title>Editor2Component&#45;&gt;AppModule</title>
<path fill="none" stroke="black" d="M788,-84.83C788,-101.2 788,-122.8 788,-122.8 788,-122.8 627.88,-122.8 627.88,-122.8"/>
<polygon fill="black" stroke="black" points="627.88,-119.3 617.88,-122.8 627.88,-126.3 627.88,-119.3"/>
</g>
<!-- Editor3Component -->
<g id="node4" class="node">
<title>Editor3Component</title>
<polygon fill="#ffffb3" stroke="black" points="708.82,-84.8 585.18,-84.8 585.18,-48.8 708.82,-48.8 708.82,-84.8"/>
<text text-anchor="middle" x="647" y="-62.6" font-family="Times,serif" font-size="14.00">Editor3Component</text>
</g>
<!-- Editor3Component&#45;&gt;AppModule -->
<g id="edge4" class="edge">
<title>Editor3Component&#45;&gt;AppModule</title>
<path fill="none" stroke="black" d="M601.58,-84.91C601.58,-84.91 601.58,-103.79 601.58,-103.79"/>
<polygon fill="black" stroke="black" points="598.08,-103.79 601.58,-113.79 605.08,-103.79 598.08,-103.79"/>
</g>
<!-- Editor4Component -->
<g id="node5" class="node">
<title>Editor4Component</title>
<polygon fill="#ffffb3" stroke="black" points="567.82,-84.8 444.18,-84.8 444.18,-48.8 567.82,-48.8 567.82,-84.8"/>
<text text-anchor="middle" x="506" y="-62.6" font-family="Times,serif" font-size="14.00">Editor4Component</text>
</g>
<!-- Editor4Component&#45;&gt;AppModule -->
<g id="edge5" class="edge">
<title>Editor4Component&#45;&gt;AppModule</title>
<path fill="none" stroke="black" d="M550.92,-84.91C550.92,-84.91 550.92,-103.79 550.92,-103.79"/>
<polygon fill="black" stroke="black" points="547.42,-103.79 550.92,-113.79 554.42,-103.79 547.42,-103.79"/>
</g>
<!-- EditorComponent -->
<g id="node6" class="node">
<title>EditorComponent</title>
<polygon fill="#ffffb3" stroke="black" points="426.32,-84.8 309.68,-84.8 309.68,-48.8 426.32,-48.8 426.32,-84.8"/>
<text text-anchor="middle" x="368" y="-62.6" font-family="Times,serif" font-size="14.00">EditorComponent</text>
</g>
<!-- EditorComponent&#45;&gt;AppModule -->
<g id="edge6" class="edge">
<title>EditorComponent&#45;&gt;AppModule</title>
<path fill="none" stroke="black" d="M368,-84.83C368,-101.2 368,-122.8 368,-122.8 368,-122.8 523.91,-122.8 523.91,-122.8"/>
<polygon fill="black" stroke="black" points="523.91,-126.3 533.91,-122.8 523.91,-119.3 523.91,-126.3"/>
</g>
<!-- HomeComponent -->
<g id="node7" class="node">
<title>HomeComponent</title>
<polygon fill="#ffffb3" stroke="black" points="291.55,-84.8 176.45,-84.8 176.45,-48.8 291.55,-48.8 291.55,-84.8"/>
<text text-anchor="middle" x="234" y="-62.6" font-family="Times,serif" font-size="14.00">HomeComponent</text>
</g>
<!-- HomeComponent&#45;&gt;AppModule -->
<g id="edge7" class="edge">
<title>HomeComponent&#45;&gt;AppModule</title>
<path fill="none" stroke="black" d="M234,-84.91C234,-104.14 234,-131.8 234,-131.8 234,-131.8 524.06,-131.8 524.06,-131.8"/>
<polygon fill="black" stroke="black" points="524.06,-135.3 534.06,-131.8 524.06,-128.3 524.06,-135.3"/>
</g>
<!-- AppComponent  -->
<g id="node10" class="node">
<title>AppComponent </title>
<polygon fill="#80b1d3" stroke="black" points="630.44,-214.8 521.56,-214.8 521.56,-178.8 630.44,-178.8 630.44,-214.8"/>
<text text-anchor="middle" x="576" y="-192.6" font-family="Times,serif" font-size="14.00">AppComponent </text>
</g>
<!-- AppModule&#45;&gt;AppComponent  -->
<g id="edge9" class="edge">
<title>AppModule&#45;&gt;AppComponent </title>
<path fill="none" stroke="black" stroke-dasharray="1,5" d="M576,-149.91C576,-149.91 576,-168.79 576,-168.79"/>
<polygon fill="black" stroke="black" points="572.5,-168.79 576,-178.79 579.5,-168.79 572.5,-168.79"/>
</g>
<!-- AppRoutingModule -->
<g id="node9" class="node">
<title>AppRoutingModule</title>
<polygon fill="#8dd3c7" stroke="black" points="152.28,-84.8 149.28,-88.8 128.28,-88.8 125.28,-84.8 23.72,-84.8 23.72,-48.8 152.28,-48.8 152.28,-84.8"/>
<text text-anchor="middle" x="88" y="-62.6" font-family="Times,serif" font-size="14.00">AppRoutingModule</text>
</g>
<!-- AppRoutingModule&#45;&gt;AppModule -->
<g id="edge8" class="edge">
<title>AppRoutingModule&#45;&gt;AppModule</title>
<path fill="none" stroke="black" d="M88,-85.09C88,-107.01 88,-140.8 88,-140.8 88,-140.8 523.97,-140.8 523.97,-140.8"/>
<polygon fill="black" stroke="black" points="523.97,-144.3 533.97,-140.8 523.97,-137.3 523.97,-144.3"/>
</g>
</g>
</svg>
